<?xml version="1.0" encoding="utf-8"?>
<svg viewBox="0 0 1000 1000" style="enable-background:new 0 0 1000 1000;" xmlns="http://www.w3.org/2000/svg">
  <defs>
    <style type="text/css">
	.st1{fill:#FFB923;}
</style>
  </defs>
  <g style="" transform="matrix(2.514911, 0, 0, 2.514911, -749.142761, -808.789001)">
    <polygon class="st1" points="360.17,380.87 364.92,384.58 364.92,348.53 496.51,348.53 496.55,348.53 628.14,348.53 628.14,384.58&#10;&#9;&#9;632.89,380.87 644.49,371.84 649.84,367.67 649.84,326.83 496.55,326.83 496.51,326.83 343.22,326.83 343.22,367.67 348.56,371.84&#10;&#9;&#9;&#9;"/>
    <path class="st1" d="M441.33,520.71c-4.21-4.77-7.66-9.4-10.47-13.6c-1.24,0.9-4.28,3.37-5.85,7.77 c-0.31,0.86-2.02,5.88,0.15,11.36c2.73,6.92,10.11,10.5,16.46,10.71c6.04,0.2,10.49-2.68,12.17-3.91 C449.89,529.68,445.64,525.6,441.33,520.71z"/>
    <path class="st1" d="M413.76,461.06c-1.4-4.82-2.47-9.4-3.28-13.69c-33.23-25.82-66.46-51.64-99.69-77.46 c-0.09,9.03-0.18,18.05-0.27,27.08c37.41,29.1,74.82,58.2,112.23,87.31C419.55,477.76,416.36,470,413.76,461.06z"/>
    <path class="st1" d="M682.55,424.72c-33.2,25.77-66.4,51.54-99.61,77.3c1.45,2.31,8.2,13.61,4.65,27.32 c-2.3,8.92-7.76,14.24-10.06,16.43c-7.99,7.59-20.25,12.4-33.02,10.2c-10.33-1.78-17.15-7.48-20.01-10.2 c-2.4,1.88-5.05,3.78-7.96,5.63c-7.15,4.55-14.04,7.66-20.01,9.81l0,2.67l0-2.67c-5.97-2.15-12.86-5.26-20.01-9.81 c-2.92-1.86-5.57-3.76-7.96-5.63c-2.86,2.72-9.67,8.42-20.01,10.2c-12.77,2.2-25.03-2.61-33.02-10.2 c-2.3-2.18-7.76-7.51-10.06-16.43c-3.54-13.72,3.21-25.02,4.65-27.32c-33.2-25.77-66.4-51.54-99.61-77.3 c-0.32,5.97,0.04,15.44,4.8,25.19c3.95,8.09,9.12,13.22,12.27,15.67c4.04,3.14,9.28,7.38,15.64,12.49v63.67 c-0.21,10.61,1,21.04,3.58,31.02c2.35,9.09,5.87,17.84,10.45,26.02c3.83,6.83,8.44,13.33,13.72,19.33 c6.89,7.84,14.77,14.71,23.42,20.43c28.48,19.04,56.97,38.07,85.45,57.11l3.04,2.03l12.71,8.49l0,0l0.93,0.62v0.02l0.02-0.01 l14.92,10.04v-20.01l1.78-1.19c28.48-19.03,56.97-38.07,85.45-57.11c8.65-5.72,16.53-12.59,23.42-20.43 c5.27-6,9.89-12.5,13.72-19.33c4.58-8.17,8.1-16.93,10.45-26.02c2.58-9.98,3.79-20.41,3.58-31.02v-63.67 c6.35-5.11,11.59-9.35,15.64-12.49c3.15-2.45,8.32-7.58,12.27-15.67C682.5,440.15,682.86,430.68,682.55,424.72z M625.2,566.33 c-8.3,32.17-31.42,49.06-39.18,54.21c-29.83,20.01-59.66,40.02-89.49,60.03c-29.83-20.01-59.66-40.02-89.49-60.03 c-7.76-5.15-30.88-22.04-39.18-54.21c-2.49-9.64-3.09-18.51-2.94-25.8v-45.17c6.72,5.28,14.1,10.99,22.09,17.01v21.32 c-0.13,6.2,0.37,13.74,2.44,21.93c6.91,27.34,26.59,39.77,33.05,44.14c2.98,2.04,52.14,37.95,74.01,52.94v0.03 c0.01,0,0.01-0.01,0.02-0.01c0.01,0,0.01,0.01,0.02,0.01v-0.03c21.87-14.99,71.04-50.9,74.01-52.94 c6.46-4.37,26.14-16.8,33.05-44.14c2.07-8.19,2.57-15.73,2.44-21.93v-21.32c7.99-6.02,15.36-11.73,22.09-17.01v45.17 C628.29,547.82,627.69,556.69,625.2,566.33z"/>
    <path class="st1" d="M562.19,507.11c-2.81,4.2-6.26,8.83-10.47,13.6c-4.31,4.89-8.56,8.97-12.46,12.34 c1.68,1.23,6.12,4.11,12.17,3.91c6.35-0.21,13.73-3.79,16.46-10.71c2.16-5.48,0.45-10.5,0.15-11.36 C566.47,510.48,563.43,508.01,562.19,507.11z"/>
    <path class="st1" d="M606.05,370.5h-109.5h-0.04h-109.5v31.28l43.57,33.94c1.57,11.62,5.76,31.27,18.55,51.97 c15.88,25.68,36.62,39.44,47.38,45.55v0.02c0.01,0,0.01-0.01,0.02-0.01c0.01,0,0.01,0.01,0.02,0.01v-0.02 c10.76-6.12,31.51-19.87,47.38-45.55c12.79-20.69,16.99-40.34,18.55-51.97l43.57-33.94V370.5z M503.92,440l-7.39,17.33L489.13,440 l-20.33-8.41l20.33-8.13l7.39-16.41l7.39,16.41l20.33,8.13L503.92,440z"/>
    <path class="st1" d="M579.3,461.06c-2.61,8.93-5.8,16.7-8.99,23.24c37.41-29.1,74.82-58.2,112.23-87.31 c-0.09-9.03-0.18-18.05-0.27-27.08c-33.23,25.82-66.46,51.64-99.69,77.46C581.77,451.66,580.71,456.25,579.3,461.06z"/>
  </g>
</svg>