<svg width="512" height="512" viewBox="0 0 512 512" fill="none" xmlns="http://www.w3.org/2000/svg">
<rect width="512" height="512" rx="256" fill="#694BC3"/>
<rect width="512" height="512" rx="256" fill="url(#paint0_linear_9_11)"/>
<path d="M392.208 307.849C385.666 294.94 378.655 282.515 371.206 270.612C335.701 325.72 276.259 375.028 200.945 405.691L226.14 467.577C304.036 435.869 361.958 376.922 392.208 307.849Z" fill="white"/>
<path d="M238.092 383.312C248.396 377.585 258.359 371.55 267.962 365.233C201.702 333.474 140.383 267.146 104.549 179.13L42.6667 204.324C79.7092 295.333 153.938 359.151 238.092 383.312Z" fill="white"/>
<path d="M337.386 104.553L312.19 42.6667C223.549 78.7552 160.739 150.124 135.206 231.563C141.401 241.768 147.938 251.558 154.73 260.992C187.702 197.411 252.468 139.126 337.386 104.553Z" fill="white"/>
<path d="M469.334 304.389C434.925 219.875 368.469 158.826 291.777 131.182C280.705 137.677 270.051 144.521 259.847 151.688C319.952 185.937 374.476 248.601 407.447 329.585L469.334 304.389Z" fill="white"/>
<path d="M265.065 299.421C286.324 299.421 303.558 282.187 303.558 260.928C303.558 239.668 286.324 222.434 265.065 222.434C243.806 222.434 226.572 239.668 226.572 260.928C226.572 282.187 243.806 299.421 265.065 299.421Z" fill="white"/>
<defs>
<linearGradient id="paint0_linear_9_11" x1="256" y1="0" x2="256" y2="512" gradientUnits="userSpaceOnUse">
<stop stop-color="#694BC3"/>
<stop offset="1" stop-color="#A997DD" stop-opacity="0"/>
</linearGradient>
</defs>
</svg>
